# xmcd
#
# Track frame offsets: 
#        150
#        11626
#        25885
#        39195
#        52269
#        64570
#        76726
#        91300
#        102548
#        114673
#        126875
#        137418
#        150440
#        163101
#        176823
#        188800
#        202874
#        215803
#        229921
#        241369
#        255056
#        266235
#        279430
#        292935
#        303983
#        316940
#        330535
#
# Disc length: 4539 seconds
#
# Revision: 2
# Processed by: cddbd v1.5.2PL0 Copyright (c) Steve Scherf et al.
# Submitted via: ExactAudioCopy v0.95b2
#
DISCID=7311b91b
DTITLE=Various Artist - Rough Treatment -The J.O.B. Records Story Disc 1
DYEAR=1951
DGENRE=Blues
TTITLE0=Johnny Shines/ Evening Sun
TTITLE1=Leroy Foster/ Late Hours at Midnight
TTITLE2=J.B. Lenoir/ How Much More
TTITLE3=Snooky Pryor/ Cryin' Shame
TTITLE4=Little Hudson/ Rough Treatment
TTITLE5=Robert Jr. Lockwood/ Dust My Broom
TTITLE6=Floyd Jones/ Dark World
TTITLE7=Memphis Minnie/ Kissing In The Dark
TTITLE8=Eddie Boyd/ Five Long Years
TTITLE9=John Brim/ Hard Pill To Swallow
TTITLE10=Alfred Wallace/ Glad I Don't Worry No More
TTITLE11=Moody Jones/ Please Somebody
TTITLE12=Snooky Pryor/ Boogie Twist
TTITLE13=Little Brother Montgomery/ Keep Drinkin'
TTITLE14=John Lee/ Rythm Rockin' Boogie
TTITLE15=Grace Brim/ Man Around My Door
TTITLE16=Sunnyland Slim/ Down Home Child
TTITLE17=Little Son Joe/ Ethel Bea
TTITLE18=Johnny Shines/ Ramblin'
TTITLE19=Leroy Foster/ Pet Rabbit
TTITLE20=Ernest Cotton/ Goin' Back To Memphis
TTITLE21=J.B. Lenoir/ The Mojo
TTITLE22=John Brim/ Humming Blues
TTITLE23=Snooky Pryor/ Boogy Fool
TTITLE24=Little Hudson/ Don't Hang Around
TTITLE25=Robert Jr. Lockwood/ Sweet Woman From Maine
TTITLE26=Floyd Jones/ Skinny Mama
EXTD=YEAR: 1951
EXTT0=
EXTT1=
EXTT2=
EXTT3=
EXTT4=
EXTT5=
EXTT6=
EXTT7=
EXTT8=
EXTT9=
EXTT10=
EXTT11=
EXTT12=
EXTT13=
EXTT14=
EXTT15=
EXTT16=
EXTT17=
EXTT18=
EXTT19=
EXTT20=
EXTT21=
EXTT22=
EXTT23=
EXTT24=
EXTT25=
EXTT26=
PLAYORDER=
